<svg width="37" height="39" viewBox="0 0 37 39" fill="none" xmlns="http://www.w3.org/2000/svg">
<g filter="url(#filter0_d_1916_605)">
<path d="M17.167 2.66675H14.5003C7.83366 2.66675 5.16699 5.33341 5.16699 12.0001V20.0001C5.16699 26.6667 7.83366 29.3334 14.5003 29.3334H22.5003C29.167 29.3334 31.8337 26.6667 31.8337 20.0001V17.3334" stroke="#120B48" stroke-width="1.5" stroke-linecap="round" stroke-linejoin="round"/>
<path d="M23.8865 4.02676L13.3798 14.5334C12.9798 14.9334 12.5798 15.7201 12.4998 16.2934L11.9265 20.3068C11.7132 21.7601 12.7398 22.7734 14.1932 22.5734L18.2065 22.0001C18.7665 21.9201 19.5532 21.5201 19.9665 21.1201L30.4732 10.6134C32.2865 8.80009 33.1398 6.69343 30.4732 4.02676C27.8065 1.36009 25.6998 2.21343 23.8865 4.02676Z" stroke="#120B48" stroke-width="1.5" stroke-miterlimit="10" stroke-linecap="round" stroke-linejoin="round"/>
<path d="M22.3799 5.53345C23.2732 8.72011 25.7666 11.2134 28.9666 12.1201" stroke="#120B48" stroke-width="1.5" stroke-miterlimit="10" stroke-linecap="round" stroke-linejoin="round"/>
</g>
<defs>
<filter id="filter0_d_1916_605" x="0.416992" y="1.58154" width="36.501" height="36.502" filterUnits="userSpaceOnUse" color-interpolation-filters="sRGB">
<feFlood flood-opacity="0" result="BackgroundImageFix"/>
<feColorMatrix in="SourceAlpha" type="matrix" values="0 0 0 0 0 0 0 0 0 0 0 0 0 0 0 0 0 0 127 0" result="hardAlpha"/>
<feOffset dy="4"/>
<feGaussianBlur stdDeviation="2"/>
<feComposite in2="hardAlpha" operator="out"/>
<feColorMatrix type="matrix" values="0 0 0 0 0 0 0 0 0 0 0 0 0 0 0 0 0 0 0.25 0"/>
<feBlend mode="normal" in2="BackgroundImageFix" result="effect1_dropShadow_1916_605"/>
<feBlend mode="normal" in="SourceGraphic" in2="effect1_dropShadow_1916_605" result="shape"/>
</filter>
</defs>
</svg>
